<svg width="22" height="22" viewBox="0 0 22 22" fill="none" xmlns="http://www.w3.org/2000/svg">
<path d="M11 0C8.82441 0 6.69767 0.645139 4.88873 1.85383C3.07979 3.06253 1.66989 4.78049 0.83733 6.79048C0.00476617 8.80047 -0.213071 11.0122 0.211367 13.146C0.635804 15.2798 1.68345 17.2398 3.22183 18.7782C4.76021 20.3166 6.72022 21.3642 8.85401 21.7886C10.9878 22.2131 13.1995 21.9952 15.2095 21.1627C17.2195 20.3301 18.9375 18.9202 20.1462 17.1113C21.3549 15.3023 22 13.1756 22 11C22 8.08262 20.8411 5.28473 18.7782 3.22183C16.7153 1.15893 13.9174 0 11 0ZM11 20C9.21997 20 7.47992 19.4722 5.99987 18.4832C4.51983 17.4943 3.36628 16.0887 2.68509 14.4442C2.0039 12.7996 1.82567 10.99 2.17294 9.24419C2.5202 7.49836 3.37737 5.89471 4.63604 4.63604C5.89472 3.37737 7.49836 2.5202 9.24419 2.17293C10.99 1.82567 12.7996 2.0039 14.4442 2.68508C16.0887 3.36627 17.4943 4.51983 18.4832 5.99987C19.4722 7.47991 20 9.21997 20 11C20 13.3869 19.0518 15.6761 17.364 17.364C15.6761 19.0518 13.387 20 11 20ZM13 6V5C13 4.73478 12.8946 4.48043 12.7071 4.29289C12.5196 4.10536 12.2652 4 12 4C11.7348 4 11.4804 4.10536 11.2929 4.29289C11.1054 4.48043 11 4.73478 11 5V6H10V5C10 4.73478 9.89465 4.48043 9.70711 4.29289C9.51958 4.10536 9.26522 4 9 4C8.73479 4 8.48043 4.10536 8.2929 4.29289C8.10536 4.48043 8 4.73478 8 5V6H7C6.73479 6 6.48043 6.10536 6.2929 6.29289C6.10536 6.48043 6 6.73478 6 7C6 7.26522 6.10536 7.51957 6.2929 7.70711C6.48043 7.89464 6.73479 8 7 8H8V14H7C6.73479 14 6.48043 14.1054 6.2929 14.2929C6.10536 14.4804 6 14.7348 6 15C6 15.2652 6.10536 15.5196 6.2929 15.7071C6.48043 15.8946 6.73479 16 7 16H8V17C8 17.2652 8.10536 17.5196 8.2929 17.7071C8.48043 17.8946 8.73479 18 9 18C9.26522 18 9.51958 17.8946 9.70711 17.7071C9.89465 17.5196 10 17.2652 10 17V16H11V17C11 17.2652 11.1054 17.5196 11.2929 17.7071C11.4804 17.8946 11.7348 18 12 18C12.2652 18 12.5196 17.8946 12.7071 17.7071C12.8946 17.5196 13 17.2652 13 17V16C13.7957 16 14.5587 15.6839 15.1213 15.1213C15.6839 14.5587 16 13.7956 16 13C15.9983 12.2613 15.7242 11.5491 15.23 11C15.7242 10.4509 15.9983 9.73873 16 9C16 8.20435 15.6839 7.44129 15.1213 6.87868C14.5587 6.31607 13.7957 6 13 6ZM13 14H10V12H13C13.2652 12 13.5196 12.1054 13.7071 12.2929C13.8946 12.4804 14 12.7348 14 13C14 13.2652 13.8946 13.5196 13.7071 13.7071C13.5196 13.8946 13.2652 14 13 14ZM13 10H10V8H13C13.2652 8 13.5196 8.10536 13.7071 8.29289C13.8946 8.48043 14 8.73478 14 9C14 9.26522 13.8946 9.51957 13.7071 9.70711C13.5196 9.89464 13.2652 10 13 10Z" fill="#121212"/>
</svg>
