<svg width="18" height="20" viewBox="0 0 18 20" fill="none" xmlns="http://www.w3.org/2000/svg">
<path d="M1.70654 19.8664L17.2865 10.8664C17.4404 10.7792 17.5684 10.6527 17.6575 10.4999C17.7466 10.347 17.7935 10.1733 17.7935 9.99641C17.7935 9.81951 17.7466 9.64578 17.6575 9.49294C17.5684 9.34011 17.4404 9.21362 17.2865 9.12641L1.70654 0.126406C1.55452 0.0386373 1.38208 -0.00756908 1.20654 -0.00756908C1.031 -0.00756909 0.858559 0.0386372 0.706539 0.126406C0.553934 0.21451 0.42732 0.341374 0.339518 0.494151C0.251715 0.646929 0.205839 0.820195 0.206539 0.996405L0.206538 18.9964C0.205838 19.1726 0.251714 19.3459 0.339517 19.4987C0.42732 19.6514 0.553933 19.7783 0.706538 19.8664C0.858558 19.9542 1.031 20.0004 1.20654 20.0004C1.38208 20.0004 1.55452 19.9542 1.70654 19.8664ZM2.20654 2.72641L14.7865 9.99641L2.20654 17.2664L2.20654 2.72641Z" fill="#121212"/>
</svg>
